<?xml version="1.0" encoding="UTF-8"?>
<svg width="36px" height="36px" viewBox="0 0 36 36" version="1.1" xmlns="http://www.w3.org/2000/svg" xmlns:xlink="http://www.w3.org/1999/xlink">
    <title>3AFE44B3-F14B-47BD-9D1E-2AA67EE8DDFA</title>
    <g id="Version_01" stroke="none" stroke-width="1" fill="none" fill-rule="evenodd">
        <g id="3.0.0_Products_VD_v1" transform="translate(-1704.000000, -23.000000)" fill-rule="nonzero">
            <g id="Group-18" transform="translate(1579.000000, 21.000000)">
                <g id="dt-language-icon" transform="translate(125.000000, 2.000000)">
                    <path d="M10.3836,4.726 C10.2132,4.8376 9.9988,4.8508 9.8036,4.91 C9.6088,4.9696 9.4064,5.1148 9.4064,5.3188 C9.4064,5.4728 9.528,5.6056 9.6692,5.6668 C9.8104,5.728 9.9692,5.732 10.1232,5.7352 C10.3908,5.7408 10.6584,5.7464 10.9264,5.752 C11.064,5.7548 11.2076,5.7564 11.3308,5.6948 C11.5924,5.5632 11.6456,5.2196 11.666,4.9276 C11.6844,4.6628 11.7028,4.3928 11.6396,4.1348 C11.5512,3.7724 11.232,3.3676 10.9064,3.7236 C10.6452,4.0084 10.7512,4.4856 10.3836,4.726 Z" id="Path" fill="#000000"></path>
                    <path d="M23.1492,30.452 C23.1052,30.4836 23.0592,30.5156 23.032,30.5628 C22.9824,30.6492 23.0112,30.7596 23.06,30.8464 C23.2832,31.242 23.82,31.3208 24.272,31.274 C24.3984,31.2608 24.5276,31.2404 24.6388,31.1788 C24.758,31.1124 24.8476,31.004 24.9296,30.8948 C25.5452,30.0712 25.8844,29.0444 25.88,28.0164 C25.8796,27.9492 25.8736,27.8728 25.8212,27.8312 C25.7672,27.788 25.6884,27.8012 25.622,27.8208 C25.0328,27.9948 24.7008,28.3924 24.4432,28.9076 C24.1376,29.5176 23.7064,30.0524 23.1492,30.452 Z" id="Path" fill="#FFFFFF"></path>
                    <path d="M8.8792,32.606 C5.2336,30.3248 2.5036,26.7168 1.3652,22.458 L1.3656,22.458 C3.1344,23.31 3.8912,24.7756 5.736,25.4476 C6.6656,25.786 7.6568,26.1376 8.27,26.9144 C8.9296,27.7496 9.006,28.93 8.728,29.9572 C8.45,30.9844 9.4592,31.712 8.88,32.6048 L8.8792,32.606 Z" id="Path" fill="#FFFFFF"></path>
                    <path d="M18,0.7828 C17.4768,0.7828 16.9592,0.806 16.448,0.8516 L16.448,0.852 C15.8672,1.4672 14.3864,1.7044 13.8956,2.748 C13.8176,2.914 13.7368,3.0884 13.748,3.2712 C13.7636,3.5196 13.9528,3.7312 14.1768,3.8392 C14.4008,3.9472 14.656,3.9692 14.9044,3.9772 C15.0952,3.9836 15.288,3.9824 15.4752,3.9444 C15.7716,3.8844 15.9008,3.64 16.1076,3.4192 C16.2496,3.14 16.636,2.4388 16.8344,2.196 C17.2964,1.6312 17.0468,1.9648 18.1148,1.974 L18.1152,2.3656 C17.6584,3.218 17.3396,3.4448 17.1892,4.1096 C17.1,4.5032 17.002,4.9152 16.7332,5.2164 C16.4324,5.5536 15.1092,5.2624 14.6644,5.3416 C13.7572,5.5036 13.6512,5.9616 12.754,5.7524 C12.806,7.0104 12.764,6.5752 12.3076,7.7488 C11.6576,7.7828 10.5848,7.9524 10.0024,8.2428 C9.7328,8.3776 9.8852,9.426 9.8072,9.7168 C9.7324,9.996 9.8732,10.3008 10.0976,10.4836 C10.3216,10.666 10.614,10.7436 10.9012,10.776 C11.6004,10.8544 12.3252,10.6836 12.9156,10.3008 C13.3012,10.0508 13.6316,9.714 14.0448,9.5128 C14.458,9.3116 15.4856,9.1648 15.802,9.498 C16.1524,9.8668 16.0188,11.1616 16.5112,11.2888 C16.9036,11.39 16.8932,10.5452 17.0956,10.1944 C17.2984,9.8436 17.5736,9.4312 17.9776,9.4584 C18.1664,9.4712 18.3328,9.5836 18.4776,9.7052 C18.9332,10.0876 18.7428,11.2316 19.3368,11.208 C19.6588,11.1952 20.2176,10.7368 20.6264,10.3184 C20.88,10.6096 20.1252,11.9972 20.4904,12.12 C20.8588,12.2436 22.884,11.4644 23.1352,11.7612 C23.2044,11.8428 23.2696,11.9348 23.2836,12.0408 C23.3132,12.2664 23.108,12.4508 22.9108,12.5648 C22.1776,12.9888 21.646,13.1736 20.882,13.5392 C17.7016,15.0612 16.5336,11.9964 11.5492,11.838 C9.9804,12.17 10.2588,12.8172 9.388,13.4784 C8.798,13.9264 8.5972,14.31 8.2664,14.9724 C7.7048,16.096 8.0892,17.4596 8.6524,18.5824 C9.0396,19.3548 9.54,20.1184 10.2992,20.5316 C10.7024,20.7512 11.1552,20.8588 11.602,20.964 C12.2748,21.1224 12.9476,21.2812 13.6204,21.4396 C13.906,21.5068 14.2024,21.5792 14.43,21.7644 C14.668,21.958 14.8004,22.2492 14.9248,22.5296 C15.1916,23.132 15.4604,23.7388 15.612,24.3804 C15.7396,24.9196 15.7836,25.4776 15.9408,26.0088 C16.2644,27.1 17.0444,29.2988 17.3972,30.3812 C17.4848,30.6496 17.5468,30.9304 17.6868,31.1756 C17.856,31.472 18.1344,31.6996 18.4496,31.8304 C19.0508,32.0792 19.7532,31.9736 20.3384,31.6896 C20.9236,31.4056 21.4132,29.6688 21.8832,29.2188 C23.3092,27.8524 24.6956,26.2708 25.042,24.3264 C25.1264,23.8528 25.1548,23.344 25.4308,22.95 C25.7028,22.562 26.162,22.3608 26.5456,22.0824 C27.0196,21.7384 27.3924,21.2564 27.606,20.7108 C27.7136,20.4356 27.7816,20.1296 27.7,19.8456 C27.5156,19.2028 26.7296,19.006 26.1424,18.6868 C27.3152,18.0408 28.8696,17.6872 30.0424,17.0416 C30.3216,16.888 30.6052,16.7308 30.8272,16.502 C30.9268,16.3992 31.0172,16.2696 31.0104,16.1264 C31.006,16.0348 30.9624,15.9504 30.9196,15.8696 C30.6344,15.3332 30.3712,15.342 30.0556,14.8228 L30.0532,14.8164 C30.3192,14.8324 30.586,14.8364 30.8512,14.8184 C31.556,14.7704 32.3744,14.6564 32.87,15.1604 C33.316,15.614 33.2632,16.3364 33.3108,16.9708 C33.3676,17.7248 33.6244,18.4832 34.1404,19.036 C34.6568,19.5888 34.3292,20.4548 35.066,20.2832 L35.0672,20.2832 C35.166,19.5368 35.2172,18.7748 35.2172,18.0012 C35.2172,8.4912 27.5088,0.7828 18,0.7828 Z M22.4236,10.4928 C21.9868,10.4712 21.0196,10.1204 20.628,10.3164 C20.8232,10.1164 20.9844,9.9256 21.0684,9.7964 C21.3288,9.3972 21.55,8.946 21.9484,8.6844 C22.4156,8.3776 23.036,8.4024 23.5624,8.5908 C23.9356,8.7244 24.3152,8.9796 24.3892,9.3692 C24.4708,9.7996 24.1288,10.218 23.722,10.3808 C23.3148,10.5432 22.8608,10.5144 22.4236,10.4928 Z" id="Shape" fill="#FFFFFF"></path>
                    <path d="M18,36 C14.6164,36 11.3188,35.0556 8.4644,33.2692 C4.5776,30.8368 1.788,27.0692 0.6092,22.66 C0.2052,21.1472 0,19.5792 0,18 C0,8.6136 7.0408,0.9064 16.378,0.072 C16.9136,0.0244 17.4592,0 18,0 C27.9252,0 36,8.0748 36,18 C36,18.7956 35.9472,19.598 35.8432,20.384 C34.6648,29.2868 26.994,36 18,36 Z M18,1.5652 C17.5056,1.5652 17.0068,1.5872 16.5172,1.6312 C7.9932,2.3928 1.5652,9.43 1.5652,18 C1.5652,19.4428 1.7524,20.8748 2.1212,22.256 C3.1972,26.2812 5.7448,29.7212 9.2944,31.9428 C11.9,33.5732 14.9104,34.4348 18,34.4348 C26.2116,34.4348 33.2156,28.306 34.292,20.1788 C34.3868,19.4604 34.4348,18.7276 34.4348,18 C34.4348,8.938 27.0624,1.5652 18,1.5652 Z" id="Shape" fill="#FFFFFF"></path>
                </g>
            </g>
        </g>
    </g>
</svg>